<?xml version="1.0" encoding="UTF-8"?>
<svg width="31px" height="18px" viewBox="0 0 31 18" version="1.1" xmlns="http://www.w3.org/2000/svg" xmlns:xlink="http://www.w3.org/1999/xlink">
    <!-- Generator: Sketch 63.1 (92452) - https://sketch.com -->
    <title>audience copy</title>
    <desc>Created with Sketch.</desc>
    <g id="form" stroke="none" stroke-width="1" fill="none" fill-rule="evenodd">
        <g id="Mobile-Copy-42" transform="translate(-268.000000, -161.000000)">
            <rect id="Rectangle" fill="#08080C" x="0" y="0" width="320" height="171"></rect>
            <rect id="Rectangle" fill="#FFFFFF" x="0" y="134" width="320" height="866" rx="20"></rect>
            <g id="audience-copy" transform="translate(268.000000, 161.000000)" fill="#08080C" fill-rule="nonzero">
                <path d="M19.1878863,11.6509155 C18.4219201,11.2356763 17.5434693,11 16.609669,11 L14.390331,11 C13.4303438,11 12.5292771,11.2492617 11.7490271,11.6857649 C10.1081811,12.6024808 9,14.3479031 9,16.3496751 L9,18 L22,18 L22,16.3496751 C22,14.3219138 20.8632514,12.5581807 19.1878863,11.6509155 Z" id="Path"></path>
                <path d="M25.7013261,9 L23.8822908,9 C22.8202089,9 21.8303016,9.33299619 21,9.90686999 C21.3990142,10.1844706 21.7739702,10.5087528 22.1195869,10.8753598 C23.4556977,12.2926165 24.1915268,14.1773127 24.1915268,16.1821365 L24.1915268,17 L31,17 L31,14.6204777 C31,11.5214347 28.6229316,9 25.7013261,9 Z" id="Path"></path>
                <path d="M7.08610819,9 L5.27514897,9 C2.36651478,9 0,11.5214347 0,14.6204777 L0,17 L6.86645636,17 L6.86645636,16.1821365 C6.86645636,14.1773127 7.59960276,12.2926165 8.92978152,10.8753598 C9.2610118,10.5224461 9.61911438,10.208745 10,9.93799113 C9.16462204,9.34544464 8.16275266,9 7.08610819,9 Z" id="Path"></path>
                <path d="M24.9969441,0 C24.9864944,0 24.9756503,0 24.9651349,0.000187046996 C22.7596512,0.0174577196 20.9809631,1.82589042 21.0001538,4.03136155 C21.0192788,6.22635804 22.8117683,8 25.0029905,8 C25.013506,8 25.0242843,8 25.0347997,7.99981295 C26.1162478,7.99133349 27.1254022,7.55913023 27.8764681,6.78269815 C28.610052,6.02428493 29.0089818,5.02495519 28.9998465,3.96863845 C28.9807215,1.77364196 27.188232,0 24.9969441,0 Z" id="Path"></path>
                <path d="M5.99694303,0 C5.98649331,0 5.97564925,0 5.96513381,0.000187046996 C3.75965067,0.0174577196 1.98096315,1.82589042 2.00015384,4.03136155 C2.01921309,6.22635804 3.81176784,8 6.00298941,8 C6.01350486,8 6.02428319,8 6.03479863,7.99981295 C7.1161807,7.99133349 8.12540053,7.55913023 8.87646619,6.78269815 C9.61011564,6.02428493 10.0090453,5.02495519 9.99984432,3.96863845 C9.98071936,1.77364196 8.18823032,0 5.99694303,0 Z" id="Path"></path>
                <path d="M15.5,0 C13.0184578,0 11,2.01854975 11,4.50030354 C11,6.29362563 12.054447,7.84532884 13.5764681,8.56775717 C14.160134,8.84519393 14.8124287,9 15.5,9 C16.1875713,9 16.839866,8.84519393 17.4235319,8.56775717 C18.945553,7.84532884 20,6.29362563 20,4.50030354 C20,2.01854975 17.9815422,0 15.5,0 Z" id="Path"></path>
            </g>
        </g>
    </g>
</svg>